<svg xmlns="http://www.w3.org/2000/svg" width="13.283" height="9.66" viewBox="0 0 13.283 9.66">
  <path id="payments_FILL0_wght400_GRAD0_opsz24" d="M47.849-794.566a1.747,1.747,0,0,1-1.283-.528,1.747,1.747,0,0,1-.528-1.283,1.747,1.747,0,0,1,.528-1.283,1.747,1.747,0,0,1,1.283-.528,1.747,1.747,0,0,1,1.283.528,1.747,1.747,0,0,1,.528,1.283,1.747,1.747,0,0,1-.528,1.283A1.747,1.747,0,0,1,47.849-794.566Zm-4.226,1.811a1.163,1.163,0,0,1-.853-.355,1.163,1.163,0,0,1-.355-.853v-4.83a1.163,1.163,0,0,1,.355-.853,1.163,1.163,0,0,1,.853-.355h8.453a1.163,1.163,0,0,1,.853.355,1.163,1.163,0,0,1,.355.853v4.83a1.163,1.163,0,0,1-.355.853,1.163,1.163,0,0,1-.853.355Zm1.208-1.208h6.038a1.163,1.163,0,0,1,.355-.853,1.163,1.163,0,0,1,.853-.355v-2.415a1.163,1.163,0,0,1-.853-.355,1.163,1.163,0,0,1-.355-.853H44.83a1.163,1.163,0,0,1-.355.853,1.163,1.163,0,0,1-.853.355v2.415a1.163,1.163,0,0,1,.853.355A1.163,1.163,0,0,1,44.83-793.962Zm6.641,3.623H41.208a1.163,1.163,0,0,1-.853-.355,1.163,1.163,0,0,1-.355-.853v-6.641h1.208v6.641H51.471Zm-7.849-3.623v0Z" transform="translate(-40 800)" fill="#fff"/>
</svg>
