
<svg xmlns="http://www.w3.org/2000/svg" xmlns:xlink="http://www.w3.org/1999/xlink" style="width:100%;" height="97.835" viewBox="0 0 336.311 97.835">
    <defs>
      <filter id="Path_3128" x="0" y="29" width="336.311" height="68.835" filterUnits="userSpaceOnUse">
        <feOffset dy="3" input="SourceAlpha"/>
        <feGaussianBlur stdDeviation="3" result="blur"/>
        <feFlood flood-opacity="0.161"/>
        <feComposite operator="in" in2="blur"/>
        <feComposite in="SourceGraphic"/>
      </filter>
      <filter id="Rectangle_17324" x="135.156" y="0" width="66" height="66" filterUnits="userSpaceOnUse">
        <feOffset dy="3" input="SourceAlpha"/>
        <feGaussianBlur stdDeviation="3" result="blur-2"/>
        <feFlood flood-opacity="0.322"/>
        <feComposite operator="in" in2="blur-2"/>
        <feComposite in="SourceGraphic"/>
      </filter>
    </defs>
    <g id="Group_1574" data-name="Group 1574" transform="translate(-1.844 -513)">
      <g transform="matrix(1, 0, 0, 1, 1.84, 513)" filter="url(#Path_3128)">
        <path id="Path_3128-2" data-name="Path 3128" d="M706.008,474.043h84.5c15.968,0,28.913,11.38,28.913,25.417h0c0,14.038-12.945,25.418-28.913,25.418H530.02c-15.968,0-28.914-11.38-28.914-25.418h0c0-14.038,12.945-25.417,28.914-25.417h83.148a29.069,29.069,0,0,1,18.046,5.989c1.7,1.351,1.516,1.8,4.187,4.471,3.11,3.115,7.69,7.7,13.455,10.138,7.194,3.041,14.806,2.129,19.549,1.041a32.894,32.894,0,0,0,6.182-2.6,29.954,29.954,0,0,0,10.433-9.431,17.013,17.013,0,0,1,1.64-1.893A27.138,27.138,0,0,1,706.008,474.043Z" transform="translate(-492.11 -439.04)" fill="#fff"/>
      </g>
      <path  id="history_FILL0_wght400_GRAD0_opsz24" d="M127.883-824.234a7.656,7.656,0,0,1-5.266-2,7.6,7.6,0,0,1-2.573-5h1.8a5.856,5.856,0,0,0,2.026,3.766,5.946,5.946,0,0,0,4.018,1.489,5.915,5.915,0,0,0,4.347-1.785,5.915,5.915,0,0,0,1.785-4.347,5.916,5.916,0,0,0-1.785-4.347,5.915,5.915,0,0,0-4.347-1.785,5.913,5.913,0,0,0-2.825.7,6.51,6.51,0,0,0-2.212,1.927h2.409v1.752H120v-5.255h1.752v2.058a7.649,7.649,0,0,1,2.726-2.168,7.821,7.821,0,0,1,3.405-.766,7.626,7.626,0,0,1,3.077.624,8.015,8.015,0,0,1,2.5,1.686,8.013,8.013,0,0,1,1.686,2.5,7.627,7.627,0,0,1,.624,3.077,7.627,7.627,0,0,1-.624,3.077,8.014,8.014,0,0,1-1.686,2.5,8.014,8.014,0,0,1-2.5,1.686A7.626,7.626,0,0,1,127.883-824.234Zm2.453-4.2-3.328-3.328v-4.73h1.752v4.029l2.8,2.8Z" transform="translate(129.385 1400.5)" fill="none" stroke="#313131" stroke-width="0.75"/>
      <text id="چالش" transform="translate(158 588)" fill="#373535" font-size="8" font-family="'PEYDA-BLACK'" font-weight="500"><tspan x="5" y="0">چالش</tspan></text>
      <text id="خروج" transform="translate(76 588)"   fill="#242424" font-size="8" font-family="'PEYDA-BLACK'" font-weight="500"><tspan x="2" y="0">خروج</tspan></text>
      <text id="تاریخچه" transform="translate(244 588)" fill="#242424" font-size="8" font-family="'PEYDA-BLACK'" font-weight="500"><tspan x="0" y="0">تاریخچه</tspan></text>
      <g id="Group_1161" data-name="Group 1161" transform="translate(-463.146 -262.146)">
        <g transform="matrix(1, 0, 0, 1, 464.99, 775.15)" filter="url(#Rectangle_17324)">
          <rect id="Rectangle_17324-2" data-name="Rectangle 17324" width="48" height="48" rx="24" transform="translate(144.16 6)" fill="#fff"/>
        </g>
        <g  id="B71_Award_Cup_Winner" data-name="B71 ,Award ,Cup ,Winner" transform="translate(621.752 792.585)">
          <g id="Group_1160" data-name="Group 1160" transform="translate(0 0)">
            <path id="Path_3114" data-name="Path 3114" d="M345.3,178.825h-1.136a2.749,2.749,0,0,0-2.663-2.158.575.575,0,0,1-.568-.561v-.647a1.583,1.583,0,0,0,1.092-1.511,1.6,1.6,0,0,0-1.048-1.511,5.941,5.941,0,0,0,2.576-3.453,6.7,6.7,0,0,0,4.541-5.309l.48-3.151a.527.527,0,0,0-.524-.6H344.56l.218-2.115a.548.548,0,0,0-.524-.6H331.112a.527.527,0,0,0-.524.6l.218,2.115h-3.493a.5.5,0,0,0-.524.6l.48,3.151a6.7,6.7,0,0,0,4.541,5.309,5.941,5.941,0,0,0,2.576,3.453,1.591,1.591,0,0,0,0,3.021v.647a.575.575,0,0,1-.568.561,2.75,2.75,0,0,0-2.664,2.158H330.02a2.752,2.752,0,0,0-2.751,2.719.575.575,0,0,0,.568.561h19.649a.512.512,0,0,0,.524-.561A2.687,2.687,0,0,0,345.3,178.825Zm-1.528-11.093.437-4.575h2.838l-.044.345A5.608,5.608,0,0,1,343.774,167.732ZM347.4,161l-.175,1.079h-2.882l.088-1.079Zm-16.505,0,.087,1.079H328.1L327.924,161Zm-2.576,2.5-.044-.345h2.838l.437,4.575A5.607,5.607,0,0,1,328.317,163.5Zm4.366,4.489-.961-9.669H343.6l-.175,1.64h-7.946a.561.561,0,1,0,0,1.122h7.859l-.7,6.992a5.02,5.02,0,0,1-4.978,4.359A5.1,5.1,0,0,1,332.684,167.991Zm7.728,5.439a.561.561,0,1,1,0,1.122h-5.458a.561.561,0,1,1,0-1.122Zm-6.55,4.316a1.649,1.649,0,0,0,1.659-1.64v-.561h4.366v.561a2.528,2.528,0,0,0,.087.561h-2.314a.561.561,0,1,0,0,1.122H341.5a1.6,1.6,0,0,1,1.528,1.079H332.291A1.6,1.6,0,0,1,333.862,177.746Zm-5.37,3.237a1.6,1.6,0,0,1,1.528-1.079H345.3a1.6,1.6,0,0,1,1.528,1.079Z" transform="translate(-326.745 -157.2)" fill="#686868"/>
            <path id="Path_3115" data-name="Path 3115" d="M329.461,196.138a1.353,1.353,0,0,0-1.354-1.338,1.391,1.391,0,0,0-1.4,1.338,1.353,1.353,0,0,0,1.354,1.338A1.391,1.391,0,0,0,329.461,196.138Zm-1.659,0a.262.262,0,1,1,.262.259A.28.28,0,0,1,327.8,196.138Z" transform="translate(-326.71 -178.571)" fill="#686868"/>
            <path id="Path_3116" data-name="Path 3116" d="M373.585,201a1.338,1.338,0,1,0,1.354,1.338A1.326,1.326,0,0,0,373.585,201Zm0,1.64a.259.259,0,1,1,.262-.259C373.891,202.511,373.759,202.64,373.585,202.64Z" transform="translate(-352.583 -182.095)" fill="#686868"/>
            <path id="Path_3117" data-name="Path 3117" d="M367.174,186.6a1.921,1.921,0,1,0,1.921-1.9A1.927,1.927,0,0,0,367.174,186.6Zm2.751,0a.824.824,0,0,1-.83.82.82.82,0,1,1,0-1.64A.824.824,0,0,1,369.925,186.6Z" transform="translate(-349.709 -172.83)" fill="#686868"/>
            <path id="Path_3118" data-name="Path 3118" d="M348.657,175.322a.419.419,0,0,0,.306.086.534.534,0,0,0,.524-.691l-.655-1.986,1.7-1.209a.631.631,0,0,0,.218-.6.563.563,0,0,0-.524-.388h-2.1l-.655-1.986a.57.57,0,0,0-1.048,0l-.655,1.986h-2.1a.611.611,0,0,0-.524.388.494.494,0,0,0,.218.6l1.7,1.209-.655,1.986a.494.494,0,0,0,.218.6.6.6,0,0,0,.655,0l1.7-1.209Zm-2.707-1.856.262-.777a.494.494,0,0,0-.218-.6l-.655-.518h.83a.567.567,0,0,0,.524-.345l.262-.777.262.777a.526.526,0,0,0,.524.345h.83l-.655.475a.63.63,0,0,0-.218.6l.262.777-.655-.475a.6.6,0,0,0-.655,0Z" transform="translate(-336.038 -163.452)" fill="#686868"/>
            <path id="Path_3119" data-name="Path 3119" d="M342.918,164.061a.568.568,0,1,0-.568.561C342.525,164.579,342.918,164.32,342.918,164.061Z" transform="translate(-335.277 -160.781)" fill="#686868"/>
            
          </g>
        </g>
      </g>
      <g id="Group_1188" data-name="Group 1188" transform="translate(-123.681 237.968)">
      <g id="_335_Bubble_chat_comment" data-name="335, Bubble, chat, comment" transform="translate(203.216 320.95)">
        <path id="Path_4146" data-name="Path 4146" d="M4,11.175a.918.918,0,0,0,.918.918h6.964l-2.11,2.1a.921.921,0,1,0,1.3,1.3l3.67-3.67a.949.949,0,0,0,0-1.3l-3.67-3.67a.921.921,0,0,0-1.3,1.3l2.11,2.1H4.918A.918.918,0,0,0,4,11.175ZM15.928,2H6.753A2.753,2.753,0,0,0,4,4.753V7.505a.918.918,0,0,0,1.835,0V4.753a.918.918,0,0,1,.918-.918h9.175a.917.917,0,0,1,.917.918V17.6a.917.917,0,0,1-.917.917H6.753a.918.918,0,0,1-.918-.917V14.845a.918.918,0,0,0-1.835,0V17.6A2.753,2.753,0,0,0,6.753,20.35h9.175A2.752,2.752,0,0,0,18.68,17.6V4.753A2.753,2.753,0,0,0,15.928,2Z" transform="translate(-4 -2)" fill="none" stroke="#313131" stroke-width="0.75"/>
      </g>
    </g>
    </g>     
  </svg>