<svg xmlns="http://www.w3.org/2000/svg" xmlns:xlink="http://www.w3.org/1999/xlink" width="71.867" height="71.867" viewBox="0 0 83 83">
  
  <g id="Artboard_1" data-name="Artboard – 1" clip-path="url(#clip-Artboard_1)">
    <rect width="71.867" height="71.867" fill="transparent"/>
    <g id="Group_1791" data-name="Group 1791" transform="translate(-5.5 -394.051)">
      <g id="Group_1789" data-name="Group 1789" transform="translate(-133.842 254.708)">
        <circle id="Ellipse_1" data-name="Ellipse 1" cx="35.933" cy="35.933" r="35.933" transform="translate(144.909 144.909)" fill="#131823"/>
        <path id="Path_2717" data-name="Path 2717" d="M180.842,144.909a35.933,35.933,0,1,0,35.933,35.933A35.933,35.933,0,0,0,180.842,144.909Zm0,71.267a35.334,35.334,0,1,1,35.334-35.334A35.334,35.334,0,0,1,180.842,216.176Z" transform="translate(0 0)" fill="#a93841" opacity="0.5" style="mix-blend-mode: multiply;isolation: isolate"/>
        <circle id="Ellipse_2" data-name="Ellipse 2" cx="29.492" cy="29.492" r="29.492" transform="translate(151.351 151.351)" fill="#d2b16e" style="mix-blend-mode: multiply;isolation: isolate"/>
        <circle id="Ellipse_3" data-name="Ellipse 3" cx="28.806" cy="28.806" r="28.806" transform="matrix(0.208, -0.978, 0.978, 0.208, 146.664, 203.012)" fill="#d2b477"/>
        <path id="Path_2723" data-name="Path 2723" d="M199.658,173.5A26.157,26.157,0,0,0,173.5,199.659a26.446,26.446,0,0,0,.134,2.657c6.721,4.59,15.9,7.419,26.023,7.419s19.3-2.829,26.023-7.419a26.437,26.437,0,0,0,.134-2.657A26.157,26.157,0,0,0,199.658,173.5Z" transform="translate(-18.816 -18.816)" fill="#fff" opacity="0.2"/>
        <path id="Path_2724" data-name="Path 2724" d="M201.768,177.8a25.091,25.091,0,0,1,25.052,24.4c0-.145.009-.291.009-.435a25.06,25.06,0,1,0-50.121,0c0,.145.007.29.009.435A25.09,25.09,0,0,1,201.768,177.8Z" transform="translate(-20.926 -20.926)" fill="#fff" opacity="0.3"/>
        <path id="Path_2725" data-name="Path 2725" d="M183.084,148.316a34.781,34.781,0,0,0-34.413,39.738,51.833,51.833,0,0,0,5.1,2.507,30.248,30.248,0,1,1,59.269-3.291,42,42,0,0,0,4.8-3.382c.006-.267.01-.534.01-.8A34.769,34.769,0,0,0,183.084,148.316Z" transform="translate(-2.242 -2.242)" fill="#fff" opacity="0.2"/>
      </g>
      <g id="Group_1790" data-name="Group 1790" transform="translate(-119 -3980)">
        <path id="lock_24dp_5F6368_FILL0_wght400_GRAD0_opsz24" d="M162.683-891.825a2.584,2.584,0,0,1-1.9-.788,2.584,2.584,0,0,1-.788-1.9v-13.417a2.584,2.584,0,0,1,.788-1.9,2.583,2.583,0,0,1,1.9-.788h1.342v-2.683a6.465,6.465,0,0,1,1.962-4.746A6.465,6.465,0,0,1,170.733-920a6.465,6.465,0,0,1,4.746,1.962,6.465,6.465,0,0,1,1.962,4.746v2.683h1.342a2.583,2.583,0,0,1,1.9.788,2.584,2.584,0,0,1,.788,1.9v13.417a2.584,2.584,0,0,1-.788,1.9,2.584,2.584,0,0,1-1.9.788Zm0-2.683h16.1v-13.417h-16.1Zm8.05-4.025a2.584,2.584,0,0,0,1.9-.788,2.584,2.584,0,0,0,.788-1.9,2.584,2.584,0,0,0-.788-1.9,2.584,2.584,0,0,0-1.9-.788,2.584,2.584,0,0,0-1.9.788,2.584,2.584,0,0,0-.788,1.9,2.584,2.584,0,0,0,.788,1.9A2.584,2.584,0,0,0,170.733-898.533Zm-4.025-12.075h8.05v-2.683a3.882,3.882,0,0,0-1.174-2.851,3.882,3.882,0,0,0-2.851-1.174,3.882,3.882,0,0,0-2.851,1.174,3.882,3.882,0,0,0-1.174,2.851Zm-4.025,16.1v0Z" transform="translate(-5.733 5321.463)" fill="#5a3c09"/>
        <path id="lock_24dp_5F6368_FILL0_wght400_GRAD0_opsz24-2" data-name="lock_24dp_5F6368_FILL0_wght400_GRAD0_opsz24" d="M162.683-891.825a2.584,2.584,0,0,1-1.9-.788,2.584,2.584,0,0,1-.788-1.9v-13.417a2.584,2.584,0,0,1,.788-1.9,2.583,2.583,0,0,1,1.9-.788h1.342v-2.683a6.465,6.465,0,0,1,1.962-4.746A6.465,6.465,0,0,1,170.733-920a6.465,6.465,0,0,1,4.746,1.962,6.465,6.465,0,0,1,1.962,4.746v2.683h1.342a2.583,2.583,0,0,1,1.9.788,2.584,2.584,0,0,1,.788,1.9v13.417a2.584,2.584,0,0,1-.788,1.9,2.584,2.584,0,0,1-1.9.788Zm0-2.683h16.1v-13.417h-16.1Zm8.05-4.025a2.584,2.584,0,0,0,1.9-.788,2.584,2.584,0,0,0,.788-1.9,2.584,2.584,0,0,0-.788-1.9,2.584,2.584,0,0,0-1.9-.788,2.584,2.584,0,0,0-1.9.788,2.584,2.584,0,0,0-.788,1.9,2.584,2.584,0,0,0,.788,1.9A2.584,2.584,0,0,0,170.733-898.533Zm-4.025-12.075h8.05v-2.683a3.882,3.882,0,0,0-1.174-2.851,3.882,3.882,0,0,0-2.851-1.174,3.882,3.882,0,0,0-2.851,1.174,3.882,3.882,0,0,0-1.174,2.851Zm-4.025,16.1v0Z" transform="translate(-6.733 5321.463)" fill="#fff"/>
      </g>
    </g>
  </g>
</svg>
