
  <svg xmlns="http://www.w3.org/2000/svg" xmlns:xlink="http://www.w3.org/1999/xlink" style="width:100%;" height="97.835" viewBox="0 0 336.311 97.835">
<style>
@font-face {
  font-family: 'PEYDA-BLACK';
  src: url('../fonts/peyda/PEYDA-BLACK.TTF');
}
text
{
font-weight: bolder;
}
</style>
<defs>
    <filter id="Path_3128" x="0" y="0" width="336.315" height="68.881" filterUnits="userSpaceOnUse">
      <feOffset dy="3" input="SourceAlpha"/>
      <feGaussianBlur stdDeviation="3" result="blur"/>
      <feFlood flood-opacity="0.161"/>
      <feComposite operator="in" in2="blur"/>
      <feComposite in="SourceGraphic"/>
    </filter>
  </defs>
  <g id="Group_1299" data-name="Group 1299" transform="translate(-1.842 -541.954)">
    <g transform="matrix(1, 0, 0, 1, 1.84, 541.95)" filter="url(#Path_3128)">
      <path id="Path_3128-2" data-name="Path 3128" d="M706.008,474.043h84.5c15.968,0,28.913,11.38,28.913,25.417h0c0,14.038-12.945,25.418-28.913,25.418H530.02c-15.968,0-28.914-11.38-28.914-25.418h0c0-14.038,12.945-25.417,28.914-25.417h83.148s85.621-.1,92.84,0Z" transform="translate(-492.11 -468)" fill="#f3f3f3f7"/>
    </g>
    <text id="چالش" transform="translate(158.006 587.997)" fill="#393939" font-size="8" font-family="'PEYDA-BLACK'" font-weight="500"><tspan x="0" y="0">چالش</tspan></text>
    <text id="خروج" transform="translate(76.006 587.997)" fill="#242424" font-size="8" font-family="'PEYDA-BLACK'" font-weight="500"><tspan x="2" y="0">خروج</tspan></text>
    <text id="تاریخچه" transform="translate(244.006 587.997)" fill="#242424" font-size="8" font-family="'PEYDA-BLACK'" font-weight="500"><tspan x="0" y="0">تاریخچه</tspan></text>
    <path id="history_FILL0_wght400_GRAD0_opsz24" d="M127.883-824.234a7.656,7.656,0,0,1-5.266-2,7.6,7.6,0,0,1-2.573-5h1.8a5.856,5.856,0,0,0,2.026,3.766,5.946,5.946,0,0,0,4.018,1.489,5.915,5.915,0,0,0,4.347-1.785,5.915,5.915,0,0,0,1.785-4.347,5.916,5.916,0,0,0-1.785-4.347,5.915,5.915,0,0,0-4.347-1.785,5.913,5.913,0,0,0-2.825.7,6.512,6.512,0,0,0-2.212,1.927h2.409v1.752H120v-5.255h1.752v2.058a7.649,7.649,0,0,1,2.726-2.168,7.819,7.819,0,0,1,3.4-.766,7.625,7.625,0,0,1,3.077.624,8.014,8.014,0,0,1,2.5,1.686,8.014,8.014,0,0,1,1.686,2.5,7.627,7.627,0,0,1,.624,3.077,7.627,7.627,0,0,1-.624,3.077,8.014,8.014,0,0,1-1.686,2.5,8.014,8.014,0,0,1-2.5,1.686,7.625,7.625,0,0,1-3.077.611Zm2.453-4.2-3.328-3.328v-4.73h1.752v4.029l2.8,2.8Z" transform="translate(129.391 1400.497)" fill="none" stroke="#393939" stroke-width="0.75"/>
   <g id="Group_1188" data-name="Group 1188" transform="translate(-123.681 237.968)">
      <g id="_335_Bubble_chat_comment" data-name="335, Bubble, chat, comment" transform="translate(203.216 320.95)">
        <path id="Path_4146" data-name="Path 4146" d="M4,11.175a.918.918,0,0,0,.918.918h6.964l-2.11,2.1a.921.921,0,1,0,1.3,1.3l3.67-3.67a.949.949,0,0,0,0-1.3l-3.67-3.67a.921.921,0,0,0-1.3,1.3l2.11,2.1H4.918A.918.918,0,0,0,4,11.175ZM15.928,2H6.753A2.753,2.753,0,0,0,4,4.753V7.505a.918.918,0,0,0,1.835,0V4.753a.918.918,0,0,1,.918-.918h9.175a.917.917,0,0,1,.917.918V17.6a.917.917,0,0,1-.917.917H6.753a.918.918,0,0,1-.918-.917V14.845a.918.918,0,0,0-1.835,0V17.6A2.753,2.753,0,0,0,6.753,20.35h9.175A2.752,2.752,0,0,0,18.68,17.6V4.753A2.753,2.753,0,0,0,15.928,2Z" transform="translate(-4 -2)" fill="none" stroke="#393939" stroke-width="0.75"/>
      </g>
    </g>


    <g id="B71_Award_Cup_Winner" data-name="B71 ,Award ,Cup ,Winner" transform="translate(157.004 558.909)">
      <g id="Group_1160" data-name="Group 1160" transform="translate(-0.003 0.009)">
        <g id="Path_3114" data-name="Path 3114" transform="translate(-326.748 -157.209)" fill="none">
          <path d="M342.049,172.78h-.937a2.218,2.218,0,0,0-2.2-1.555.448.448,0,0,1-.468-.4v-.466a1.113,1.113,0,0,0,.036-2.177,4.385,4.385,0,0,0,2.124-2.487,5.075,5.075,0,0,0,3.744-3.824l.4-2.27a.348.348,0,0,0-.1-.3.464.464,0,0,0-.329-.13h-2.878l.18-1.524a.363.363,0,0,0-.109-.3.48.48,0,0,0-.323-.135H330.351a.464.464,0,0,0-.329.13.348.348,0,0,0-.1.3l.18,1.524h-2.88a.443.443,0,0,0-.339.122.329.329,0,0,0-.093.31l.4,2.27a5.075,5.075,0,0,0,3.744,3.824,4.385,4.385,0,0,0,2.124,2.487,1.108,1.108,0,0,0,0,2.176v.466a.448.448,0,0,1-.468.4,2.219,2.219,0,0,0-2.2,1.555h-.935a2.145,2.145,0,0,0-2.268,1.959.448.448,0,0,0,.468.4h16.2a.454.454,0,0,0,.32-.117.341.341,0,0,0,.112-.287,1.817,1.817,0,0,0-.646-1.389A2.389,2.389,0,0,0,342.049,172.78Zm-1.26-7.991.36-3.3h2.34l-.036.249a4.161,4.161,0,0,1-2.662,3.047Zm2.991-4.85-.144.777H341.26l.073-.777Zm-13.608,0,.072.777h-2.376l-.145-.777Zm-2.124,1.8-.036-.249h2.34l.36,3.3a4.161,4.161,0,0,1-2.666-3.047Zm3.6,3.234-.792-6.965h9.792l-.144,1.181h-6.551a.408.408,0,1,0,0,.808h6.48l-.577,5.037a3.994,3.994,0,0,1-4.1,3.14,4.045,4.045,0,0,1-4.1-3.2Zm6.372,3.918a.408.408,0,1,1,0,.808h-4.5a.408.408,0,1,1,0-.808ZM332.62,172a1.285,1.285,0,0,0,1.368-1.181v-.4h3.6v.4a1.607,1.607,0,0,0,.072.4h-1.908a.408.408,0,1,0,0,.808h3.165a1.321,1.321,0,0,1,1.26.777h-8.853a1.318,1.318,0,0,1,1.3-.807Zm-4.428,2.332a1.321,1.321,0,0,1,1.26-.777h12.6a1.321,1.321,0,0,1,1.26.777Z" stroke="none"/>
          <path d="M 343.8635559082031 175.1427154541016 C 343.8596496582031 175.1427154541016 343.855712890625 175.1426696777344 343.851806640625 175.1425628662109 L 327.6512756347656 175.142578125 C 327.3960876464844 175.1399230957031 327.1891174316406 174.9613037109375 327.1829223632812 174.7384338378906 C 327.1978149414062 173.6531066894531 328.2088623046875 172.7800598144531 329.4511413574219 172.7797393798828 L 330.3861083984375 172.7797393798828 C 330.61376953125 171.87744140625 331.5251159667969 171.2324371337891 332.5825805664062 171.2252197265625 C 332.8377380371094 171.2225646972656 333.0447387695312 171.0439300537109 333.0508728027344 170.8210601806641 L 333.0508728027344 170.35498046875 C 332.5137634277344 170.1997375488281 332.1510314941406 169.7611541748047 332.1510314941406 169.2668609619141 C 332.1510314941406 168.7725677490234 332.5137634277344 168.333984375 333.0508728027344 168.1787414550781 C 332.0116882324219 167.6109619140625 331.2538452148438 166.7234039306641 330.9269714355469 165.6913146972656 C 328.9568481445312 165.1308441162109 327.5113220214844 163.6542663574219 327.1829528808594 161.8668670654297 L 326.7871704101562 159.5969848632812 C 326.7610778808594 159.4866638183594 326.7955932617188 159.3720397949219 326.8804016113281 159.2871704101562 C 326.9652099609375 159.2023162841797 327.0904846191406 159.1571960449219 327.2192077636719 159.1647644042969 L 330.0992126464844 159.1647644042969 L 329.9194641113281 157.6411743164062 C 329.9020080566406 157.5321044921875 329.9396057128906 157.4218139648438 330.0224914550781 157.3388519287109 C 330.1050415039062 157.2562866210938 330.2243347167969 157.2089538574219 330.3497619628906 157.2089538574219 C 330.350341796875 157.2089538574219 330.3509216308594 157.2089538574219 330.3514709472656 157.2089538574219 L 341.1870422363281 157.2089538574219 C 341.3112182617188 157.2132263183594 341.4278869628906 157.2619781494141 341.5096130371094 157.34375 C 341.5913696289062 157.425537109375 341.6309509277344 157.5331115722656 341.6190795898438 157.6411895751953 L 341.4393310546875 159.1647644042969 L 344.31689453125 159.1647491455078 C 344.4408874511719 159.1643829345703 344.5629577636719 159.2117309570312 344.6458435058594 159.2946624755859 C 344.728759765625 159.3776092529297 344.766357421875 159.4879302978516 344.7489013671875 159.5969848632812 L 344.3531188964844 161.8668670654297 C 344.0247802734375 163.6542663574219 342.5792541503906 165.1308441162109 340.6090698242188 165.6913146972656 C 340.2821960449219 166.7234191894531 339.5244140625 167.6109619140625 338.4851989746094 168.1787414550781 C 339.0069274902344 168.3462982177734 339.3524780273438 168.7815856933594 339.3492126464844 169.2672119140625 C 339.3514099121094 169.7623443603516 338.9876403808594 170.2021179199219 338.4488830566406 170.3556976318359 L 338.4488830566406 170.8217926025391 C 338.4551086425781 171.0446472167969 338.6620788574219 171.2232360839844 338.917236328125 171.2259063720703 C 339.9744873046875 171.2332153320312 340.8855285644531 171.8782653808594 341.1128234863281 172.7804718017578 L 342.0494689941406 172.7804718017578 C 342.0558776855469 172.7804260253906 342.0621948242188 172.7803955078125 342.0685729980469 172.7803955078125 C 342.656982421875 172.7803955078125 343.2215881347656 172.9849700927734 343.6374206542969 173.3493347167969 C 344.0577697753906 173.7176666259766 344.290771484375 174.2183074951172 344.2838439941406 174.7384185791016 C 344.2954711914062 174.8437194824219 344.2547912597656 174.9483184814453 344.1721801757812 175.0256195068359 C 344.0921936035156 175.1004333496094 343.9803466796875 175.1427154541016 343.8635559082031 175.1427154541016 Z M 343.309326171875 174.3335876464844 C 343.1245422363281 173.8646697998047 342.6180419921875 173.5529937744141 342.0494689941406 173.5563049316406 L 329.4519958496094 173.5563049316406 C 329.44775390625 173.5562744140625 329.443603515625 173.5562591552734 329.4393920898438 173.5562591552734 C 328.8768920898438 173.5562591552734 328.3756103515625 173.8681640625 328.192138671875 174.3335876464844 L 343.309326171875 174.3335876464844 Z M 332.5818176269531 172.0027618408203 C 332.0072021484375 172.0027618408203 331.49658203125 172.32861328125 331.3235778808594 172.8099975585938 L 340.17626953125 172.8099975585938 C 339.991455078125 172.3410949707031 339.4854736328125 172.0281982421875 338.9163818359375 172.03271484375 L 335.7511291503906 172.03271484375 C 335.4956665039062 172.03271484375 335.2886047363281 171.8517913818359 335.2886047363281 171.6285858154297 C 335.2886047363281 171.4053955078125 335.4956665039062 171.2244567871094 335.7511291503906 171.2244720458984 L 337.6590270996094 171.2244720458984 C 337.6177978515625 171.0925445556641 337.5937194824219 170.9569854736328 337.5872802734375 170.8203430175781 L 337.5872802734375 170.4162139892578 L 333.9875183105469 170.4162139892578 L 333.9875183105469 170.8203582763672 C 333.9834289550781 171.4742279052734 333.37548828125 172.0017547607422 332.6281127929688 172.0017547607422 C 332.6253051757812 172.0017547607422 332.6224670410156 172.0017547607422 332.6196594238281 172.0017395019531 L 332.6188659667969 172.0032043457031 C 332.6064758300781 172.0028991699219 332.5941467285156 172.0027618408203 332.5818176269531 172.0027618408203 Z M 333.5200500488281 168.8926391601562 C 333.2645568847656 168.8926391601562 333.0574645996094 169.0735778808594 333.0574645996094 169.2967681884766 C 333.0574645996094 169.5199432373047 333.2645568847656 169.7008972167969 333.5200500488281 169.7008972167969 L 338.0201416015625 169.7008972167969 C 338.2756042480469 169.7008972167969 338.4826965332031 169.5199432373047 338.4826965332031 169.2967681884766 C 338.4826965332031 169.0735778808594 338.2756042480469 168.8926391601562 338.0201416015625 168.8926391601562 L 333.5200500488281 168.8926391601562 Z M 330.8560791015625 158.0093078613281 L 331.6484069824219 164.9745635986328 L 331.6475524902344 164.9759979248047 C 331.9166259765625 166.7844696044922 333.6632690429688 168.1467590332031 335.7503051757812 168.1758728027344 C 335.7508239746094 168.1758728027344 335.751220703125 168.1758728027344 335.7517395019531 168.1758728027344 C 337.8268737792969 168.1758728027344 339.5814208984375 166.8331909179688 339.8546447753906 165.0357818603516 L 340.4318237304688 159.9989776611328 L 333.9521179199219 159.9989776611328 C 333.6966247558594 159.9989776611328 333.4895935058594 159.8180236816406 333.4895935058594 159.5948486328125 C 333.4895935058594 159.3716430664062 333.6966247558594 159.1907196044922 333.9520874023438 159.1907196044922 L 340.5035400390625 159.1907196044922 L 340.6478576660156 158.0093078613281 L 330.8560791015625 158.0093078613281 Z M 341.14990234375 161.4937438964844 L 340.7896118164062 164.7894287109375 L 340.791259765625 164.7894287109375 C 342.2088928222656 164.2296905517578 343.2093200683594 163.0846252441406 343.4535827636719 161.7422637939453 L 343.4898376464844 161.4937438964844 L 341.14990234375 161.4937438964844 Z M 328.0469665527344 161.7408294677734 C 328.2917785644531 163.0838470458984 329.2936096191406 164.2291107177734 330.712646484375 164.7879791259766 L 330.352294921875 161.4922943115234 L 328.0123596191406 161.4922943115234 L 328.0486755371094 161.7408294677734 L 328.0469665527344 161.7408294677734 Z M 341.3330078125 159.9398956298828 L 341.2604370117188 160.7171783447266 L 343.6366577148438 160.7171783447266 L 343.7809448242188 159.9398956298828 L 341.3330078125 159.9398956298828 Z M 330.2442932128906 160.7171783447266 L 330.1725769042969 159.9398956298828 L 327.7229919433594 159.9398956298828 L 327.8680725097656 160.7171783447266 L 330.2442932128906 160.7171783447266 Z" stroke="none" fill="#393939"/>
        </g>
        <g id="Path_3115" data-name="Path 3115" transform="translate(-326.707 -183.116)" fill="none">
          <path d="M328.978,195.764a1.054,1.054,0,0,0-1.116-.964,1.09,1.09,0,0,0-1.154.964,1.054,1.054,0,0,0,1.116.964,1.09,1.09,0,0,0,1.154-.964Zm-1.368,0a.19.19,0,0,1,.132-.176.239.239,0,0,1,.236.04.172.172,0,0,1,.048.206.224.224,0,0,1-.417-.07Z" stroke="none"/>
          <path d="M 327.8528747558594 194.7999572753906 C 327.85595703125 194.7999420166016 327.8594360351562 194.7999877929688 327.8621520996094 194.7999877929688 C 328.4734497070312 194.7999877929688 328.9708557128906 195.2297515869141 328.9776611328125 195.7638549804688 L 328.9776611328125 195.7638702392578 C 328.9541931152344 196.3023681640625 328.4476623535156 196.7277221679688 327.8318176269531 196.7277221679688 C 327.8287048339844 196.7277221679688 327.825439453125 196.7276000976562 327.8224182128906 196.7276916503906 C 327.2112731933594 196.7276916503906 326.7137451171875 196.2979125976562 326.7069702148438 195.7638702392578 C 326.7304992675781 195.2253265380859 327.237060546875 194.7999572753906 327.8528747558594 194.7999572753906 Z M 327.8258361816406 195.9504089355469 C 327.9134216308594 195.9504089355469 327.9923706054688 195.9041900634766 328.0256042480469 195.8333892822266 C 328.0589294433594 195.7625885009766 328.0399780273438 195.6812591552734 327.9776611328125 195.6274566650391 C 327.9153442382812 195.5736541748047 327.8219909667969 195.5580444335938 327.7414245605469 195.5879516601562 C 327.6608276367188 195.6178436279297 327.6087646484375 195.6873168945312 327.60986328125 195.7638549804688 L 327.6081848144531 195.7638549804688 C 327.61669921875 195.8650054931641 327.7098999023438 195.9448699951172 327.8258361816406 195.9504089355469 Z" stroke="none" fill="#393939"/>
        </g>
        <g id="Path_3116" data-name="Path 3116" transform="translate(-356.034 -187.388)" fill="none">
          <path d="M373.353,201a.973.973,0,1,0,1.116.964.9.9,0,0,0-.325-.688A1.182,1.182,0,0,0,373.353,201Zm0,1.181a.188.188,0,1,1,.216-.187C373.605,202.088,373.5,202.181,373.353,202.181Z" stroke="none"/>
          <path d="M 373.3760986328125 200.9997253417969 C 373.6635437011719 200.9997253417969 373.939697265625 201.0986328125 374.1445922851562 201.2755126953125 C 374.3549194335938 201.4571075439453 374.4721069335938 201.7054290771484 374.4693603515625 201.9638061523438 C 374.4692993164062 202.4946136474609 373.97802734375 202.9254760742188 373.3704833984375 202.9275665283203 C 373.3689880371094 202.9275665283203 373.3675231933594 202.9275817871094 373.3660583496094 202.9275817871094 C 372.7605285644531 202.9275817871094 372.2678833007812 202.5008850097656 372.2630615234375 201.9713745117188 C 372.2581787109375 201.4405975341797 372.7454833984375 201.0062866210938 373.3529663085938 200.9999389648438 C 373.3606872558594 200.9998016357422 373.3683776855469 200.9997253417969 373.3760986328125 200.9997253417969 Z M 373.3529663085938 202.1813354492188 C 373.4964599609375 202.1813354492188 373.6052856445312 202.0884094238281 373.5690307617188 201.9947662353516 C 373.5690307617188 201.8920135498047 373.4739379882812 201.80859375 373.3563232421875 201.8081970214844 C 373.3560485839844 201.8081970214844 373.3557739257812 201.8081970214844 373.35546875 201.8081970214844 C 373.2382507324219 201.8081970214844 373.1428833007812 201.8908233642578 373.1419067382812 201.9933319091797 C 373.1410522460938 202.0960693359375 373.2354125976562 202.1801300048828 373.3529663085938 202.1813354492188 Z" stroke="none" fill="#393939"/>
        </g>
        <g id="Path_3117" data-name="Path 3117" transform="translate(-352.772 -176.156)" fill="none">
          <path d="M367.174,186.069a1.391,1.391,0,0,0,.966,1.289,1.756,1.756,0,0,0,1.732-.29,1.26,1.26,0,0,0,.351-1.51,1.6,1.6,0,0,0-1.465-.858A1.5,1.5,0,0,0,367.174,186.069Zm2.268,0a.559.559,0,0,1-.2.419.733.733,0,0,1-.482.171.6.6,0,1,1,0-1.181.734.734,0,0,1,.482.171.559.559,0,0,1,.2.419Z" stroke="none"/>
          <path d="M 368.7578735351562 184.7000122070312 C 369.4000244140625 184.7000427246094 369.9786376953125 185.0388793945312 370.2227478027344 185.5578155517578 C 370.4668273925781 186.0767822265625 370.328125 186.6731719970703 369.87158203125 187.0677337646484 C 369.4149475097656 187.4622497558594 368.7308959960938 187.5769195556641 368.1396179199219 187.3579406738281 C 367.5483703613281 187.1389923095703 367.1669921875 186.6297760009766 367.1739807128906 186.0687103271484 C 367.1861267089844 185.3113555908203 367.8909301757812 184.7023010253906 368.7578735351562 184.7000122070312 Z M 369.4421997070312 186.0687255859375 C 369.4413452148438 185.9110565185547 369.3687133789062 185.7601776123047 369.2402954101562 185.6493377685547 C 369.1119079589844 185.5385284423828 368.9360961914062 185.4762115478516 368.7578735351562 185.47802734375 C 368.3844604492188 185.47802734375 368.081787109375 185.7424926757812 368.081787109375 186.0687103271484 C 368.081787109375 186.3949584960938 368.3844604492188 186.6594390869141 368.7578735351562 186.659423828125 C 368.9405517578125 186.6611938476562 369.1119079589844 186.5989227294922 369.2402954101562 186.4881134033203 C 369.3687133789062 186.3773040771484 369.4413452148438 186.2263946533203 369.4421997070312 186.0687103271484 C 369.4421997070312 186.0687255859375 369.4421997070312 186.0687255859375 369.4421997070312 186.0687255859375 L 369.4421997070312 186.0687103271484 Z" stroke="none" fill="#393939"/>
        </g>
        <g id="Path_3118" data-name="Path 3118" transform="translate(-337.277 -164.787)" fill="none">
          <path d="M347.684,173.331a.382.382,0,0,0,.252.062.466.466,0,0,0,.362-.152.346.346,0,0,0,.07-.346l-.54-1.431,1.4-.871a.425.425,0,0,0,.18-.432.461.461,0,0,0-.432-.279h-1.731l-.54-1.431a.5.5,0,0,0-.864,0l-.54,1.431h-1.731a.5.5,0,0,0-.432.279.336.336,0,0,0,.18.432l1.4.871-.54,1.431a.336.336,0,0,0,.18.432.555.555,0,0,0,.54,0l1.4-.871Zm-2.232-1.337.216-.56a.336.336,0,0,0-.18-.432l-.54-.373h.684a.474.474,0,0,0,.432-.249l.216-.56.216.56a.438.438,0,0,0,.432.249h.684l-.54.342a.424.424,0,0,0-.18.432l.216.56-.54-.342a.555.555,0,0,0-.54,0Z" stroke="none"/>
          <path d="M 344.6297302246094 173.3975677490234 C 344.5357360839844 173.3975677490234 344.4417724609375 173.3742218017578 344.3597106933594 173.3275146484375 C 344.1869506835938 173.2411499023438 344.1109619140625 173.0583801269531 344.1799621582031 172.8952941894531 L 344.7200012207031 171.4646453857422 L 343.3183288574219 170.5937194824219 C 343.1455993652344 170.5073547363281 343.0696105957031 170.3245697021484 343.1386108398438 170.1614990234375 C 343.2089233398438 170.0033569335938 343.3770141601562 169.8946075439453 343.5706481933594 169.8820037841797 L 345.3021240234375 169.8820037841797 L 345.8421325683594 168.4513397216797 C 345.9161682128906 168.3002777099609 346.0860900878906 168.2023162841797 346.2742004394531 168.2023162841797 C 346.4622497558594 168.2023162841797 346.6321716308594 168.3002777099609 346.7062377929688 168.4513397216797 L 347.2462768554688 169.8820037841797 L 348.9777221679688 169.8820037841797 C 349.1750793457031 169.8854217529297 349.3484191894531 169.9975433349609 349.4097290039062 170.1614990234375 C 349.4438171386719 170.3233795166016 349.3750915527344 170.4887084960938 349.2300109863281 170.5937194824219 L 347.8283996582031 171.4646453857422 L 348.3683776855469 172.8953094482422 C 348.4101257324219 173.0136413574219 348.3840637207031 173.1422729492188 348.2984313964844 173.2409362792969 C 348.2127685546875 173.3395843505859 348.0779113769531 173.3957366943359 347.9364013671875 173.39306640625 C 347.8462829589844 173.402099609375 347.7555541992188 173.3798828125 347.6841125488281 173.3311157226562 L 346.3013916015625 172.4565887451172 L 344.8997802734375 173.3274993896484 C 344.8176879882812 173.3742218017578 344.7237243652344 173.3975677490234 344.6297302246094 173.3975677490234 Z M 344.9483947753906 170.6290130615234 L 345.4884338378906 171.0021514892578 C 345.6611938476562 171.0885162353516 345.7371520996094 171.2712860107422 345.6681823730469 171.4343872070312 L 345.4521789550781 171.9941101074219 L 346.029296875 171.6209564208984 C 346.1933898925781 171.5275268554688 346.4051208496094 171.5274963378906 346.5693359375 171.6209564208984 L 347.109375 171.963134765625 L 346.8933410644531 171.4034118652344 C 346.8591003417969 171.2415161132812 346.9278869628906 171.0761108398438 347.0730895996094 170.97119140625 L 347.6131286621094 170.6290130615234 L 346.9288024902344 170.6289978027344 C 346.7382202148438 170.638427734375 346.5623168945312 170.5375213623047 346.4967956542969 170.3804779052734 L 346.28076171875 169.8207550048828 L 346.0647583007812 170.3804779052734 C 345.9911193847656 170.53173828125 345.8222351074219 170.6310272216797 345.6327209472656 170.6290130615234 L 344.9483947753906 170.6290130615234 Z" stroke="none" fill="#393939"/>
        </g>
        <g id="Path_3119" data-name="Path 3119" transform="translate(-336.416 -161.544)" fill="none">
          <path d="M342.719,163.9a.411.411,0,0,0-.285-.382.519.519,0,0,0-.512.085.373.373,0,0,0-.1.447.473.473,0,0,0,.433.254C342.395,164.273,342.719,164.087,342.719,163.9Z" stroke="none"/>
          <path d="M 342.2503051757812 164.3043365478516 C 342.0603637695312 164.3043365478516 341.8892517089844 164.2040863037109 341.8171081542969 164.0505828857422 C 341.7449645996094 163.8970489501953 341.7861328125 163.7206726074219 341.9212341308594 163.6040649414062 C 342.0563659667969 163.4874420166016 342.2587585449219 163.4536895751953 342.4335632324219 163.5186309814453 C 342.6083374023438 163.5835418701172 342.720947265625 163.7342834472656 342.7186279296875 163.9002227783203 C 342.7186279296875 164.0868072509766 342.3945922851562 164.2733612060547 342.2503051757812 164.3043365478516 Z" stroke="none" fill="#393939"/>
        </g>
      </g>
    </g>
  </g>
</svg>